<svg width="60" height="60" viewBox="0 0 60 60" xmlns="http://www.w3.org/2000/svg">
  <defs>
    <linearGradient id="mailGradNew" x1="0%" y1="0%" x2="100%" y2="100%">
      <stop offset="0%" style="stop-color:#EF4444" />
      <stop offset="100%" style="stop-color:#7F1D1D" />
    </linearGradient>
    <clipPath id="sqClip"><path d="M 0,30 C 0,0 0,0 30,0 S 60,0 60,30 60,60 30,60 0,60 0,30" /></clipPath>
  </defs>
  <g clip-path="url(#sqClip)">
    <rect width="60" height="60" fill="url(#mailGradNew)" />
    <rect width="60" height="30" fill="white" fill-opacity="0.05" />
    
    <g transform="translate(13, 13) scale(1.4)" fill="none" stroke="white" stroke-width="1.5" stroke-linecap="round" stroke-linejoin="round">
        <polygon points="17 19 21 19 21 7.43 17 10.86 17 19" />
        <polygon points="7 10.86 3 7.43 3 19 7 19 7 10.86" />
        <path d="M21,7.43h0l-4,3.43-5,4.28L7,10.86,3,7.43H3A2.42,2.42,0,0,1,7,5.59H7l5,4.29,5-4.29h0A2.42,2.42,0,0,1,21,7.43Z" stroke-opacity="0.9" />
    </g>
  </g>
  <path d="M 0,30 C 0,0 0,0 30,0 S 60,0 60,30 60,60 30,60 0,60 0,30" fill="none" stroke="white" stroke-opacity="0.15" stroke-width="1.5"/>
</svg>
