<svg width="60" height="60" viewBox="0 0 60 60" xmlns="http://www.w3.org/2000/svg">
  <defs>
    <linearGradient id="mailGrad" x1="0%" y1="0%" x2="100%" y2="100%">
      <stop offset="0%" style="stop-color:#EF4444" />
      <stop offset="100%" style="stop-color:#7F1D1D" />
    </linearGradient>
  </defs>
  <g clip-path="url(#sq)">
    <rect width="60" height="60" fill="url(#mailGrad)" />
    <path d="M44 21.5v17c0 1.1-.9 2-2 2h-4v-11L30 35l-8-5.5v11h-4c-1.1 0-2-.9-2-2v-17c0-1.8 2-2.8 3.5-1.7l10.5 7.2 10.5-7.2c1.5-1.1 3.5-.1 3.5 1.7z" fill="white"/>
  </g>
  <path d="M 0,30 C 0,0 0,0 30,0 S 60,0 60,30 60,60 30,60 0,60 0,30" fill="none" stroke="white" stroke-opacity="0.2" stroke-width="1.5"/>
</svg>