<svg width="60" height="60" viewBox="0 0 60 60" xmlns="http://www.w3.org/2000/svg">
  <defs>
    <linearGradient id="portGrad" x1="0%" y1="0%" x2="100%" y2="100%">
      <stop offset="0%" style="stop-color:#8B5CF6" />
      <stop offset="100%" style="stop-color:#4C1D95" />
    </linearGradient>
    <clipPath id="sq"><path d="M 0,30 C 0,0 0,0 30,0 S 60,0 60,30 60,60 30,60 0,60 0,30" /></clipPath>
  </defs>
  <g clip-path="url(#sq)">
    <rect width="60" height="60" fill="url(#portGrad)" />
    <rect width="60" height="60" fill="white" fill-opacity="0.1" /> <path d="M40 22h-3v-1c0-1.7-1.3-3-3-3h-8c-1.7 0-3 1.3-3 3v1h-3c-1.7 0-3 1.3-3 3v12c0 1.7 1.3 3 3 3h20c1.7 0 3-1.3 3-3V25c0-1.7-1.3-3-3-3zm-14-1c0-.6.4-1 1-1h8c.6 0 1 .4 1 1v1h-10v-1zm14 16H20V25h20v12z" fill="white"/>
  </g>
  <path d="M 0,30 C 0,0 0,0 30,0 S 60,0 60,30 60,60 30,60 0,60 0,30" fill="none" stroke="white" stroke-opacity="0.2" stroke-width="1.5"/>
</svg>