<svg width="60" height="60" viewBox="0 0 60 60" xmlns="http://www.w3.org/2000/svg">
  <defs>
    <linearGradient id="cvGradNew" x1="0%" y1="0%" x2="100%" y2="100%">
      <stop offset="0%" style="stop-color:#4B5563" />
      <stop offset="100%" style="stop-color:#111827" />
    </linearGradient>
    <clipPath id="sqClip"><path d="M 0,30 C 0,0 0,0 30,0 S 60,0 60,30 60,60 30,60 0,60 0,30" /></clipPath>
  </defs>
  <g clip-path="url(#sqClip)">
    <rect width="60" height="60" fill="url(#cvGradNew)" />
    <rect width="60" height="30" fill="white" fill-opacity="0.05" />
    <g transform="translate(15, 15) scale(1.25)">
        <path d="M20,13a5,5,0,0,0-2-4V2H2V22H18V17.41l3.29,3.29,1.41-1.41-3.54-3.54A5,5,0,0,0,20,13Zm-2,0a3,3,0,1,1-3-3A3,3,0,0,1,18,13ZM4,20V4H16V8.1A5,5,0,0,0,11,10v0H6v2h4.1a5,5,0,0,0,0,2H6v2h5v0a5,5,0,0,0,5,1.93V20Z" fill="white" fill-opacity="0.9"/>
        <rect height="2" width="4" x="6" y="6" fill="white" fill-opacity="0.9"/>
    </g>
  </g>
  <path d="M 0,30 C 0,0 0,0 30,0 S 60,0 60,30 60,60 30,60 0,60 0,30" fill="none" stroke="white" stroke-opacity="0.15" stroke-width="1.5"/>
</svg>
